<svg width="826" height="870" viewBox="0 0 826 870" fill="none" xmlns="http://www.w3.org/2000/svg">
<path d="M752.956 401.613C752.956 404.823 750.222 407.391 747.006 407.391C743.79 407.391 741.217 404.823 741.217 401.613C741.217 398.402 743.79 395.834 747.006 395.834C750.222 395.834 752.956 398.402 752.956 401.613Z" fill="#6CD2A3"/>
<path d="M361.049 807.559C362.497 807.559 362.497 805.151 361.049 805.151C359.441 805.151 359.441 807.559 361.049 807.559Z" fill="#A59CE5"/>
<path d="M354.617 842.873C356.064 842.873 356.064 840.465 354.617 840.465C353.009 840.465 353.009 842.873 354.617 842.873Z" fill="#A59CE5"/>
<path d="M788.817 395.032C790.265 395.032 790.265 392.624 788.817 392.624C787.209 392.624 787.209 395.032 788.817 395.032Z" fill="#6CD2A3"/>
<path d="M819.372 431.95C820.819 431.95 820.819 429.542 819.372 429.542C817.764 429.542 817.764 431.95 819.372 431.95Z" fill="#6CD2A3"/>
<path d="M767.911 422.319C769.359 422.319 769.359 419.911 767.911 419.911C766.303 419.911 766.303 422.319 767.911 422.319Z" fill="#6CD2A3"/>
<path d="M879.518 364.533C879.518 364.533 787.21 275.125 759.871 236.601" stroke="#6CD2A3"/>
<path d="M545.987 870.482C545.987 870.482 596 814.461 710.018 804.83" stroke="#6CD2A3"/>
<path d="M879.518 390.055V759.404C863.919 762.293 848.159 764.059 832.881 765.664C719.989 776.74 594.232 784.123 515.915 865.987C514.414 867.485 512.967 868.983 511.573 870.481H248.158C268.903 798.57 253.947 715.101 221.624 645.277C178.847 552.98 110.661 475.129 60.4868 386.684C10.4733 298.079 -20.8856 189.249 18.0316 95.3467C33.6307 57.7858 58.2354 26.9667 87.1821 -0.481689H627.681C620.123 93.0995 670.297 183.31 733.819 253.295C778.526 302.574 830.308 345.111 879.518 390.055Z" fill="#BFF3DB" fill-opacity="0.28"/>
<path d="M426.228 815.559C426.228 821.337 421.403 826.153 415.614 826.153C409.825 826.153 405 821.337 405 815.559C405 809.78 409.825 804.965 415.614 804.965C421.403 804.965 426.228 809.78 426.228 815.559Z" fill="#6CD2A3"/>
<path d="M448.1 834.34C448.1 837.55 445.527 840.279 442.311 840.279C439.094 840.279 436.521 837.55 436.521 834.34C436.521 831.129 439.094 828.561 442.311 828.561C445.527 828.561 448.1 831.129 448.1 834.34Z" fill="#6CD2A3"/>
<path d="M456.622 798.063C456.622 801.915 453.567 804.965 449.707 804.965C445.848 804.965 442.792 801.915 442.792 798.063C442.792 794.21 445.848 791 449.707 791C453.567 791 456.622 794.21 456.622 798.063Z" fill="#6CD2A3"/>
<path d="M376.649 126.002C376.649 133.225 370.859 139.004 363.623 139.004C356.386 139.004 350.597 133.225 350.597 126.002C350.597 118.779 356.386 113 363.623 113C370.859 113 376.649 118.779 376.649 126.002Z" fill="#6CD2A3"/>
<path d="M332.264 126.002C332.264 130.014 329.047 133.064 325.027 133.064C321.168 133.064 317.951 130.014 317.951 126.002C317.951 121.989 321.168 118.778 325.027 118.778C329.047 118.778 332.264 121.989 332.264 126.002Z" fill="#6CD2A3"/>
<path d="M238.349 168.539C237.062 167.255 237.062 165.008 238.349 163.723C239.796 162.279 242.047 162.279 243.334 163.723C244.781 165.008 244.781 167.255 243.334 168.539C242.047 169.984 239.796 169.984 238.349 168.539Z" fill="#6CD2A3"/>
<path d="M354.134 151.203C354.778 156.179 351.401 160.673 346.415 161.315C341.591 161.957 337.088 158.426 336.445 153.611C335.801 148.635 339.179 144.14 344.164 143.498C348.988 142.856 353.491 146.387 354.134 151.203Z" fill="#6CD2A3"/>
<path d="M159.387 192.781C160.995 192.781 160.995 190.373 159.387 190.373C157.94 190.373 157.94 192.781 159.387 192.781Z" fill="#A59CE5"/>
<path d="M144.753 205.622C146.201 205.622 146.201 203.214 144.753 203.214C143.145 203.214 143.145 205.622 144.753 205.622Z" fill="#A59CE5"/>
<path d="M170.483 212.845C171.931 212.845 171.931 210.438 170.483 210.438C168.875 210.438 168.875 212.845 170.483 212.845Z" fill="#A59CE5"/>
<path d="M455.93 141.415C457.378 141.415 457.378 139.008 455.93 139.008C454.322 139.008 454.322 141.415 455.93 141.415Z" fill="#A59CE5"/>
</svg>
