<svg width="22" height="22" viewBox="0 0 22 22" fill="none" xmlns="http://www.w3.org/2000/svg">
<path d="M20.2812 7.90625C20.2812 10.5359 18.7602 13.2344 15.7609 15.9328C14.399 17.1571 12.9161 18.2398 11.3352 19.1641C11.2325 19.2205 11.1172 19.2501 11 19.2501C10.8828 19.2501 10.7675 19.2205 10.6648 19.1641C10.2953 18.9578 1.71875 14.0852 1.71875 7.90625C1.71875 6.82404 2.05926 5.76927 2.69203 4.89134C3.32481 4.01341 4.21778 3.35683 5.24445 3.0146C6.27112 2.67238 7.37945 2.66186 8.41243 2.98454C9.44541 3.30722 10.3507 3.94673 11 4.8125C11.6493 3.94673 12.5546 3.30722 13.5876 2.98454C14.6206 2.66186 15.7289 2.67238 16.7555 3.0146C17.7822 3.35683 18.6752 4.01341 19.308 4.89134C19.9407 5.76927 20.2812 6.82404 20.2812 7.90625Z" fill="#B9B9B9"/>
</svg>
