<svg width="20" height="20" viewBox="0 0 20 20" fill="none" xmlns="http://www.w3.org/2000/svg">
<path d="M17.9922 16.1252L12.7344 7.01825V2.56592H13.0762C13.2122 2.56592 13.3426 2.5119 13.4387 2.41575C13.5349 2.3196 13.5889 2.1892 13.5889 2.05322C13.5889 1.91725 13.5349 1.78684 13.4387 1.69069C13.3426 1.59454 13.2122 1.54053 13.0762 1.54053H6.92385C6.25185 1.55142 6.24851 2.55436 6.92385 2.56592H7.26564V7.01816L2.00769 16.1252C1.40871 17.1627 2.1574 18.4596 3.35535 18.4596H16.6445C17.8425 18.4596 18.5914 17.1627 17.9922 16.1252ZM17.1043 17.1687C17.0585 17.25 16.9916 17.3175 16.9108 17.3642C16.8299 17.4109 16.738 17.435 16.6447 17.4341H3.35535C3.26216 17.4341 3.17062 17.4095 3.08992 17.3629C3.00922 17.3163 2.94222 17.2493 2.89563 17.1686C2.84905 17.0878 2.82454 16.9963 2.82456 16.9031C2.82457 16.8099 2.84912 16.7184 2.89573 16.6377L5.92292 11.3945C6.33214 11.5468 6.82239 11.6528 7.49839 11.6528C8.74842 11.6528 9.37343 11.2964 9.99853 10.94C10.6235 10.5836 11.2486 10.2272 12.4986 10.2272C12.8188 10.2254 13.1384 10.2544 13.453 10.3138L17.1043 16.6378C17.1518 16.7182 17.1769 16.8099 17.1769 16.9033C17.1769 16.9967 17.1518 17.0883 17.1043 17.1687Z" fill="black"/>
<path d="M8.51642 15.896C8.53161 16.7945 9.86834 16.7946 9.88361 15.896C9.86842 14.9976 8.53169 14.9975 8.51642 15.896Z" fill="black"/>
<path d="M5.78204 13.8452C5.79723 14.7437 7.13396 14.7438 7.14923 13.8453C7.13404 12.9468 5.79731 12.9467 5.78204 13.8452Z" fill="black"/>
<path d="M12.2216 12.8198C12.2368 13.7183 13.5735 13.7184 13.5888 12.8199C13.5737 11.9214 12.2369 11.9213 12.2216 12.8198Z" fill="black"/>
</svg>
